<svg width="33" height="28" viewBox="0 -26 33 80" fill="none" xmlns="http://www.w3.org/2000/svg">
<g clip-path="url(#clip0_87_125)">
<path d="M31.8869 4.8413C31.2285 4.12958 30.3192 3.70902 29.2846 3.70902H24.0798V3.64431C24.0798 2.83554 23.7663 2.05912 23.2333 1.5415C22.7002 0.991539 21.9791 0.66803 21.1952 0.66803H11.7891C10.9739 0.66803 10.2527 0.991539 9.71972 1.5415C9.1867 2.09147 8.87316 2.83554 8.87316 3.64431V3.70902H3.69976C2.66508 3.70902 1.75582 4.12958 1.09739 4.8413C0.438955 5.52067 0 6.49119 0 7.52642V23.6372C0 24.7048 0.407601 25.6429 1.09739 26.3223C1.75582 27.0017 2.69644 27.4546 3.69976 27.4546H29.2846C30.3192 27.4546 31.2285 27.034 31.8869 26.3223C32.5454 25.6429 32.9843 24.6724 32.9843 23.6372V7.52642C32.9843 6.45884 32.5767 5.52067 31.8869 4.8413ZM31.3539 23.6372H31.3226C31.3226 24.2195 31.1031 24.7371 30.7268 25.1253C30.3506 25.5135 29.8489 25.74 29.2846 25.74H3.69976C3.13539 25.74 2.63373 25.5135 2.25748 25.1253C1.88124 24.7371 1.66176 24.2195 1.66176 23.6372V7.52642C1.66176 6.94411 1.88124 6.42649 2.25748 6.03828C2.63373 5.65007 3.13539 5.42361 3.69976 5.42361H9.75107C10.2214 5.42361 10.5976 5.0354 10.5976 4.55014V3.61196C10.5976 3.2561 10.723 2.93259 10.9425 2.70614C11.162 2.47968 11.4755 2.35028 11.8204 2.35028H21.1952C21.5401 2.35028 21.8537 2.47968 22.0732 2.70614C22.2926 2.93259 22.4181 3.2561 22.4181 3.61196V4.55014C22.4181 5.0354 22.7943 5.42361 23.2646 5.42361H29.3159C29.8803 5.42361 30.3819 5.65007 30.7582 6.03828C31.1344 6.42649 31.3539 6.94411 31.3539 7.52642V23.6372Z" fill="#3A3A3A"/>
<path d="M16.4921 7.62347C14.36 7.62347 12.4161 8.5293 11.0365 9.95274C9.62561 11.4085 8.77905 13.3819 8.77905 15.5818C8.77905 17.7817 9.65696 19.7874 11.0365 21.2109C12.4475 22.6666 14.36 23.5401 16.4921 23.5401C18.6242 23.5401 20.5681 22.6343 21.9477 21.2109C23.3586 19.7551 24.2052 17.7817 24.2052 15.5818C24.2052 13.3819 23.3273 11.3762 21.9477 9.95274C20.5681 8.5293 18.6242 7.62347 16.4921 7.62347ZM20.7562 20.0139C19.6589 21.1138 18.1539 21.8255 16.4921 21.8255C14.8304 21.8255 13.3254 21.1138 12.228 20.0139C11.1306 18.8816 10.4722 17.3287 10.4722 15.6141C10.4722 13.8995 11.162 12.3467 12.228 11.2144C13.3254 10.0821 14.8304 9.40277 16.4921 9.40277C18.1539 9.40277 19.6589 10.1145 20.7562 11.2144C21.8536 12.3467 22.5121 13.8995 22.5121 15.6141C22.5434 17.3287 21.8536 18.8816 20.7562 20.0139Z" fill="#3A3A3A"/>
<path d="M27.6541 10.7615C28.5026 10.7615 29.1905 10.0518 29.1905 9.17632C29.1905 8.30084 28.5026 7.59113 27.6541 7.59113C26.8056 7.59113 26.1178 8.30084 26.1178 9.17632C26.1178 10.0518 26.8056 10.7615 27.6541 10.7615Z" fill="#3A3A3A"/>
</g>
<defs>
<clipPath id="clip0_87_125">
<rect width="33" height="26.8513" fill="white" transform="translate(0 0.603333)"/>
</clipPath>
</defs>
</svg>
