<svg xmlns="http://www.w3.org/2000/svg" xmlns:xlink="http://www.w3.org/1999/xlink" width="500" zoomAndPan="magnify" viewBox="0 0 375 374.999991" height="500" preserveAspectRatio="xMidYMid meet" version="1.0"><defs><clipPath id="76dff67c5f"><path d="M 47.324219 70.835938 L 327.824219 70.835938 L 327.824219 375 L 47.324219 375 Z M 47.324219 70.835938 " clip-rule="nonzero"/></clipPath></defs><g clip-path="url(#76dff67c5f)"><path fill="#2743fd" d="M 327.820312 405.03125 C 327.820312 308.566406 264.980469 230.410156 187.574219 230.410156 C 110.171875 230.410156 47.328125 308.566406 47.328125 405.03125 C 47.328125 420.074219 110.171875 432.335938 187.574219 432.335938 C 264.980469 432.335938 327.820312 420.074219 327.820312 405.03125 Z M 187.574219 70.835938 C 229.796875 70.835938 264 105.007812 264 147.191406 C 264 189.375 229.796875 223.546875 187.574219 223.546875 C 145.355469 223.546875 111.152344 189.375 111.152344 147.191406 C 111.152344 105.007812 145.355469 70.835938 187.574219 70.835938 Z M 187.574219 70.835938 " fill-opacity="1" fill-rule="evenodd"/></g></svg>