<svg width="40" height="26" viewBox="0 0 40 26" fill="none" xmlns="http://www.w3.org/2000/svg">
<path d="M27.2949 25.0467C34.1691 25.0467 39.7417 19.4398 39.7417 12.5233C39.7417 5.60689 34.1691 0 27.2949 0C20.4208 0 14.8481 5.60689 14.8481 12.5233C14.8481 19.4398 20.4208 25.0467 27.2949 25.0467Z" fill="#F99600"/>
<path d="M13.2922 25.0467C20.1664 25.0467 25.739 19.4398 25.739 12.5233C25.739 5.60689 20.1664 0 13.2922 0C6.41807 0 0.845459 5.60689 0.845459 12.5233C0.845459 19.4398 6.41807 25.0467 13.2922 25.0467Z" fill="#EC000A"/>
<path fill-rule="evenodd" clip-rule="evenodd" d="M20.2936 22.8791C17.0065 20.6249 14.8481 16.8277 14.8481 12.5233C14.8481 8.21895 17.0065 4.42177 20.2936 2.1676C23.5808 4.42177 25.7391 8.21895 25.7391 12.5233C25.7391 16.8277 23.5808 20.6249 20.2936 22.8791Z" fill="#FF5300"/>
</svg>
