<svg width="23" height="25" viewBox="0 0 23 25" fill="none" xmlns="http://www.w3.org/2000/svg">
<g clip-path="url(#clip0_117_117)">
<path fill-rule="evenodd" clip-rule="evenodd" d="M11.4546 12.5C8.56755 12.5 6.22729 10.1598 6.22729 7.27273V6.22727C6.22729 3.34025 8.56755 1 11.4546 1C14.3416 1 16.6818 3.34025 16.6818 6.22727V7.27273C16.6818 10.1598 14.3416 12.5 11.4546 12.5Z" stroke="#2B47FC" stroke-width="1.05" stroke-linecap="square"/>
<path fill-rule="evenodd" clip-rule="evenodd" d="M21.9091 20.2657C21.9091 18.6448 20.8459 17.2193 19.2918 16.7572C17.4539 16.2104 14.7415 15.6365 11.4545 15.6365C8.16764 15.6365 5.4552 16.2104 3.6173 16.7572C2.06323 17.2193 1 18.6448 1 20.2657V24.0001H21.9091V20.2657Z" stroke="#2B47FC" stroke-width="1.05" stroke-linecap="square"/>
</g>
<defs>
<clipPath id="clip0_117_117">
<rect width="23" height="25" fill="white"/>
</clipPath>
</defs>
</svg>
