<svg width="179" height="175" viewBox="0 0 179 175" fill="none" xmlns="http://www.w3.org/2000/svg">
<path d="M101.764 -91.1879C104.419 -93.7935 105.747 -95.0963 106.896 -96.1415C140.079 -126.343 191.403 -124.703 222.559 -92.4456C223.637 -91.3293 224.877 -89.9444 227.358 -87.1746L266.046 -43.9834C270.267 -39.2712 272.378 -36.915 274.063 -34.763C297.944 -4.26073 297.317 38.6643 272.557 68.4739C270.81 70.5771 268.631 72.8721 264.275 77.4623L186.869 159.017C155.535 192.03 99.8667 168.226 102.372 122.886L102.62 118.408C104.171 90.3425 79.7791 67.751 51.7631 71.3042C8.84042 76.748 -16.5017 24.8557 14.3134 -5.38044L101.764 -91.1879Z" fill="#B52FF8"/>
</svg>
