<svg width="163" height="146" viewBox="0 0 163 146" fill="none" xmlns="http://www.w3.org/2000/svg">
<path d="M73.0444 -136.482C77.2004 -139.74 79.2783 -141.37 81.1088 -142.651C115.689 -166.869 163.081 -161.254 191.045 -129.627C192.526 -127.953 194.165 -125.883 197.445 -121.744L270.271 -29.8216C273.292 -26.0084 274.803 -24.1018 275.998 -22.4275C300.679 12.1281 295.05 59.6415 262.978 87.4737C261.424 88.8222 259.51 90.323 255.682 93.3248L206.305 132.04C163.801 165.366 101.848 131.551 107.191 77.9411C110.437 45.3704 87.1231 15.9866 54.5545 11.3462C0.529998 3.64877 -18.4339 -64.7559 24.4019 -98.3424L73.0444 -136.482Z" fill="#40CEF2"/>
</svg>
